<svg id="Layer_1" data-name="Layer 1" xmlns="http://www.w3.org/2000/svg" viewBox="0 0 653.3 621.17"><defs><style>.cls-1{fill:#14452f;}.cls-2{fill:#b22222;}.cls-3{fill:#040273;}</style></defs><polygon class="cls-1" points="558.74 192.58 582.19 226.9 220.65 475.21 0 306.76 220.65 621.17 594.32 248.29 617.66 283.46 653.3 183.47 558.74 192.58"/><ellipse class="cls-2" cx="195.19" cy="227.46" rx="49.51" ry="25.03" transform="translate(-129.57 74.73) rotate(-30)"/><path class="cls-3" d="M285.55,340h89.3V179.78c-25,22.62-55.53,33.22-89.3,41.65Z" transform="translate(-41.99 -53.34)"/><path class="cls-3" d="M150.53,422.07l89.3,69.14V244.5c-25,22.63-55.53,33.22-89.3,41.65Z" transform="translate(-41.99 -53.34)"/><path class="cls-3" d="M420.58,146V396.66l89.29-61.07V104.35C484.87,127,454.35,137.57,420.58,146Z" transform="translate(-41.99 -53.34)"/><polygon class="cls-3" points="243.56 435.66 332.86 374.59 332.86 332.36 243.56 332.36 243.56 435.66"/><ellipse class="cls-2" cx="330.2" cy="162.11" rx="49.51" ry="25.03" transform="translate(-78.81 133.48) rotate(-30)"/><ellipse class="cls-2" cx="465.22" cy="86.24" rx="49.51" ry="25.03" transform="translate(-22.79 190.82) rotate(-30)"/></svg>
