<svg id="Layer_1" data-name="Layer 1" xmlns="http://www.w3.org/2000/svg" viewBox="0 0 451.97 86.36"><defs><style>.cls-1{fill:#0567e1;}</style></defs><path class="cls-1" d="M185.15,343.36l-1.2-.61s8.46,4.83-2.23,14.19-21.09,17.18-24.48,20.12-15,12.71-1.21,19.24a7.1,7.1,0,0,1-.63-3.09c.12-3,2.48-5.14,4.77-7.15,1.9-1.66,4.59-3.82,8-6.56,4.37-3.49,9.81-7.85,16.64-13.6,7.87-6.63,8.28-10.86,6.87-14.91A13.9,13.9,0,0,0,185.15,343.36Z" transform="translate(-132.4 -315.58)"/><path class="cls-1" d="M199,359.07a14.53,14.53,0,0,0-2.47-6.28,13.24,13.24,0,0,1-1.71,8.1,30.09,30.09,0,0,1-7,7.92c-6.89,5.81-12.37,10.2-16.78,13.73-3.39,2.71-6.07,4.86-7.91,6.47-.75.66-1.39,1.25-1.93,1.79-3.89,3.45-.36,7.74,3.19,8.72,0-.1,0-.2-.05-.3-.43-3.6,4.57-6.81,7.26-8.54A157.11,157.11,0,0,0,187,379.33c4.18-3.43,8.59-7.14,10.79-12.21.11-.26.21-.51.31-.77A16.69,16.69,0,0,0,199,359.07Z" transform="translate(-132.4 -315.58)"/><path class="cls-1" d="M202.84,365a4.39,4.39,0,0,1-.33,1.4c-.15.53-.32,1.05-.52,1.56a19.09,19.09,0,0,1-1.53,3.15c-2.81,4.73-7.32,8.43-11.51,11.89-.93.76-1.86,1.51-2.8,2.25-2.53,2-5.14,3.87-7.79,5.68-2.49,1.7-5.15,3.22-7.47,5.17a7.27,7.27,0,0,0-2.13,2.42v0l-.05.12a1.46,1.46,0,0,0-.09.63s0,0,0,0c.1,2,3.94,1.9,3.94,1.9-.44-.45,0-1.07.38-1.42a16,16,0,0,1,3.44-2.5c3.16-1.95,6.21-4,9.25-6.15,2.5-1.79,5-3.6,7.33-5.6,1.13-1,2.22-2,3.25-3.06a30.33,30.33,0,0,0,5.58-7.5c.26-.59.49-1.2.69-1.81a15.77,15.77,0,0,0,.79-5.09A26.83,26.83,0,0,0,202.84,365Z" transform="translate(-132.4 -315.58)"/><path class="cls-1" d="M204.29,377.14a23.39,23.39,0,0,1-3.47,5.94c-.5.68-1,1.34-1.6,2l-.07.09c-4.37,4.95-10.16,8.51-14.87,11.6l-4.56,2.81-.63.38c-.93.57-1.82,1.08-2.6,1.53l-.82.48.23,0C191.05,399.81,202.81,389.7,204.29,377.14Z" transform="translate(-132.4 -315.58)"/><path class="cls-1" d="M151.54,374.17l1.2.6S144.28,370,155,360.59s21.09-17.18,24.49-20.12,15-12.71,1.21-19.25a7.26,7.26,0,0,1,.63,3.1c-.12,3.05-2.48,5.13-4.77,7.14-1.9,1.67-4.59,3.83-8,6.56-4.37,3.5-9.81,7.85-16.64,13.61-7.87,6.63-8.27,10.86-6.86,14.9A13.87,13.87,0,0,0,151.54,374.17Z" transform="translate(-132.4 -315.58)"/><path class="cls-1" d="M137.66,358.46a14.46,14.46,0,0,0,2.47,6.28,13.09,13.09,0,0,1,1.71-8.11,30.18,30.18,0,0,1,7-7.92c6.9-5.8,12.38-10.19,16.78-13.72,3.39-2.71,6.07-4.86,7.91-6.48.75-.66,1.4-1.24,1.93-1.78,3.9-3.45.37-7.75-3.19-8.72l.06.3c.43,3.6-4.57,6.81-7.26,8.53a160.09,160.09,0,0,0-15.41,11.35c-4.17,3.43-8.58,7.14-10.78,12.22-.11.25-.22.51-.31.77A16.69,16.69,0,0,0,137.66,358.46Z" transform="translate(-132.4 -315.58)"/><path class="cls-1" d="M133.85,352.49a4.14,4.14,0,0,1,.33-1.4c.15-.53.32-1.06.52-1.57a19.9,19.9,0,0,1,1.53-3.15c2.81-4.72,7.32-8.42,11.51-11.88.92-.77,1.86-1.52,2.8-2.25q3.79-3,7.79-5.68c2.49-1.71,5.15-3.23,7.47-5.17a7.34,7.34,0,0,0,2.12-2.42v0a.28.28,0,0,0,0-.11,1.5,1.5,0,0,0,.1-.64,0,0,0,0,1,0,0c-.1-2-3.95-1.9-3.95-1.9.44.45,0,1.07-.37,1.42a16,16,0,0,1-3.44,2.5c-3.17,1.95-6.22,4-9.25,6.15-2.51,1.78-5,3.59-7.33,5.6-1.13,1-2.22,2-3.26,3.05a30.53,30.53,0,0,0-5.57,7.51c-.26.59-.49,1.19-.7,1.81a16,16,0,0,0-.78,5.09A27.16,27.16,0,0,0,133.85,352.49Z" transform="translate(-132.4 -315.58)"/><path class="cls-1" d="M132.4,340.38a23.05,23.05,0,0,1,3.47-5.93q.75-1,1.59-2l.08-.08c4.37-4.95,10.15-8.52,14.87-11.6,1.58-1,3.1-1.92,4.56-2.81l.63-.38c.93-.57,1.81-1.09,2.59-1.54.27-.15.55-.31.82-.48l-.22,0C145.64,317.71,133.88,327.83,132.4,340.38Z" transform="translate(-132.4 -315.58)"/><path class="cls-1" d="M247.52,338.21l-5.33-1c-6-1.14-8.41-2.83-8.41-5.83,0-3.48,3.18-5.73,8.11-5.73,4.27,0,7.16,1.57,8.84,4.78a6,6,0,0,0,5.79,3.3c3.07,0,5.06-1.86,5.06-4.66a6.67,6.67,0,0,0-.51-2.66c-2.45-6.42-9.49-10.11-19.29-10.11-12.06,0-20.16,6.43-20.16,16,0,7.69,5.16,12.56,15.35,14.48l5.37,1c5.41,1,8.77,2.42,8.77,6s-3.7,6-9,6c-4.73,0-8.15-1.69-9.88-4.88-1.52-2.32-3.08-3.23-5.55-3.23a4.87,4.87,0,0,0-5.23,5.05,7.63,7.63,0,0,0,.64,3.08c2.35,5.85,9.76,9.33,19.81,9.33,13.19,0,21.38-6.36,21.38-16.59C263.27,344.71,258.42,340.29,247.52,338.21Z" transform="translate(-132.4 -315.58)"/><path class="cls-1" d="M295,316.29c-15.55,0-25.21,10.13-25.21,26.44s9.66,26.4,25.21,26.4,25.17-10.12,25.17-26.4S310.49,316.29,295,316.29Zm0,43.09c-7.73,0-12.73-6.54-12.73-16.65S287.24,326,295,326s12.72,6.55,12.72,16.69S302.69,359.38,295,359.38Z" transform="translate(-132.4 -315.58)"/><path class="cls-1" d="M356.34,316.29H332.76c-3.9,0-6.14,2.39-6.14,6.55v39.78c0,4.2,2.18,6.51,6.14,6.51s6.1-2.31,6.1-6.51V348.54h15.78c3.19,0,5-1.69,5-4.63s-1.88-4.68-5-4.68H338.86V326.16h17.48c3.32,0,5.38-1.89,5.38-4.93S359.71,316.29,356.34,316.29Z" transform="translate(-132.4 -315.58)"/><path class="cls-1" d="M405.09,316.29H373.61c-3.39,0-5.41,1.85-5.41,4.94s2,4.93,5.41,4.93h9.63v36.46c0,4.2,2.16,6.51,6.09,6.51s6.1-2.31,6.1-6.51V326.16h9.66c3.32,0,5.38-1.89,5.38-4.93S408.46,316.29,405.09,316.29Z" transform="translate(-132.4 -315.58)"/><path class="cls-1" d="M452.56,359.21H431.84v-1l22.78-31.42a7.62,7.62,0,0,0,1.84-4.63c0-3.62-2.35-5.88-6.13-5.88h-28c-3.37,0-5.38,1.88-5.38,5s2,5,5.38,5h19.61v1l-.1.14-22.9,31.39a7.45,7.45,0,0,0-1.73,4.78c0,3.41,2.39,5.62,6.09,5.62h29.28c3.32,0,5.38-1.93,5.38-5S455.93,359.21,452.56,359.21Z" transform="translate(-132.4 -315.58)"/><path class="cls-1" d="M470.35,316.29c-4,0-6.14,2.29-6.14,6.43v40.1c0,4.14,2.18,6.43,6.14,6.43s6.1-2.29,6.1-6.43v-40.1C476.45,318.58,474.28,316.29,470.35,316.29Z" transform="translate(-132.4 -315.58)"/><path class="cls-1" d="M521.63,316.29c-3.73,0-5.78,2.17-5.78,6.09v25.09h-1l-20-27.69c-1.91-2.51-3.57-3.49-5.91-3.49-3.87,0-5.92,2-5.92,5.8v41c0,3.93,2.05,6.09,5.78,6.09s5.77-2.16,5.77-6.09V337.67h1l20.2,28c1.84,2.54,3.45,3.49,5.94,3.49,3.76,0,5.74-2,5.74-5.73v-41C527.4,318.46,525.35,316.29,521.63,316.29Z" transform="translate(-132.4 -315.58)"/><path class="cls-1" d="M559.19,316.29c-15.55,0-25.21,10.13-25.21,26.44s9.66,26.4,25.21,26.4,25.18-10.12,25.18-26.4S574.72,316.29,559.19,316.29Zm0,43.09c-7.73,0-12.72-6.54-12.72-16.65s5-16.69,12.72-16.69,12.72,6.55,12.72,16.69S566.92,359.38,559.19,359.38Z" transform="translate(-132.4 -315.58)"/><path class="cls-1" d="M223.54,401h-2.1l2.84-13.36h2.1Zm6.42,0L232.1,391H234l-.33,1.55h.16a3.53,3.53,0,0,1,3.06-1.71,2.91,2.91,0,0,1,3.07,3,6.25,6.25,0,0,1-.13,1.17L238.57,401h-2l1.22-5.73a3.78,3.78,0,0,0,.11-.89,1.74,1.74,0,0,0-1.91-1.84,2.8,2.8,0,0,0-2.72,2.4L232,401Zm14.7,0L246.8,391h1.94l-.33,1.55h.15a3.53,3.53,0,0,1,3.07-1.71,2.91,2.91,0,0,1,3.06,3,5.51,5.51,0,0,1-.13,1.17L253.28,401h-2l1.22-5.73a4.4,4.4,0,0,0,.11-.89,1.74,1.74,0,0,0-1.92-1.84A2.8,2.8,0,0,0,248,395l-1.3,6.06Zm20.73-10.28a4,4,0,0,1,4.23,4.27c0,3.57-2.31,6.2-5.44,6.2a4,4,0,0,1-4.26-4.28C259.92,393.36,262.2,390.76,265.39,390.76Zm-1,8.69c1.74,0,3.16-1.87,3.16-4.14,0-1.74-.86-2.78-2.28-2.78-1.9,0-3.22,1.78-3.22,4.29A2.34,2.34,0,0,0,264.36,399.45ZM275,391h2l1,7.74h.15l4.09-7.74h2.17L278.6,401h-2.19Zm15.47,10.25a2.85,2.85,0,0,1-3.05-2.76c0-2,1.59-3.24,4.4-3.35l2.72-.11.15-.66a2.73,2.73,0,0,0,.05-.42c0-.88-.75-1.41-2-1.41a2,2,0,0,0-2.06,1.1h-2c.44-1.74,2.07-2.83,4.21-2.83,2.29,0,3.81,1.15,3.81,2.89a4.36,4.36,0,0,1-.08.81L295.2,401h-1.93l.27-1.29h-.14A3.68,3.68,0,0,1,290.42,401.2Zm.73-1.65a2.82,2.82,0,0,0,2.81-2.07l.23-1-2.46.12c-1.48.06-2.36.67-2.36,1.61S290.1,399.55,291.15,399.55Zm13.93,1.54c-1.51,0-2.57-.72-2.57-2.08a4.74,4.74,0,0,1,.1-.87l1.19-5.46h-1.66l.33-1.68h1.67l.53-2.55h2l-.55,2.55h2.23l-.35,1.68h-2.21l-1.08,4.95a4.17,4.17,0,0,0-.1.77c0,.69.44,1,1.21,1a5.07,5.07,0,0,0,.73,0l-.33,1.64A4.81,4.81,0,0,1,305.08,401.09Zm10.63-11.89a1.3,1.3,0,0,1,0-2.6,1.3,1.3,0,0,1,0,2.6ZM312,401,314.1,391h2L314,401Zm14.28-10.28a4,4,0,0,1,4.23,4.27c0,3.57-2.31,6.2-5.45,6.2a4,4,0,0,1-4.25-4.28C320.77,393.36,323.05,390.76,326.24,390.76Zm-1,8.69c1.74,0,3.16-1.87,3.16-4.14,0-1.74-.86-2.78-2.28-2.78-1.9,0-3.22,1.78-3.22,4.29A2.34,2.34,0,0,0,325.21,399.45Zm9.85,1.59L337.19,391h1.94l-.33,1.55H339a3.55,3.55,0,0,1,3.07-1.71,2.91,2.91,0,0,1,3.06,3A5.51,5.51,0,0,1,345,395L343.67,401h-2l1.22-5.73a4.4,4.4,0,0,0,.11-.89,1.74,1.74,0,0,0-1.92-1.84,2.8,2.8,0,0,0-2.71,2.4l-1.3,6.06Zm27,0c-1.51,0-2.57-.72-2.57-2.08a4,4,0,0,1,.1-.87l1.18-5.46h-1.65l.33-1.68h1.67l.53-2.55h2l-.54,2.55h2.23l-.35,1.68h-2.22l-1.07,4.95a4.17,4.17,0,0,0-.1.77c0,.69.44,1,1.21,1a5.07,5.07,0,0,0,.73,0l-.33,1.64A4.81,4.81,0,0,1,362.06,401.09Zm6.85,0,3-14h2l-1.17,5.4h.16a3.43,3.43,0,0,1,3-1.69,2.92,2.92,0,0,1,3.11,3,5.72,5.72,0,0,1-.14,1.18L377.59,401h-2l1.23-5.77a4.23,4.23,0,0,0,.11-.89,1.75,1.75,0,0,0-2-1.82,2.82,2.82,0,0,0-2.75,2.38l-1.29,6.1Zm17.93.16a2.86,2.86,0,0,1-3.06-2.76c0-2,1.59-3.24,4.4-3.35l2.72-.11.15-.66a1.87,1.87,0,0,0,.05-.42c0-.88-.75-1.41-2-1.41a2,2,0,0,0-2.05,1.1h-2c.43-1.74,2.06-2.83,4.2-2.83,2.3,0,3.81,1.15,3.81,2.89a3.65,3.65,0,0,1-.08.81l-1.4,6.58h-1.92l.27-1.29h-.15A3.68,3.68,0,0,1,386.84,401.2Zm.73-1.65a2.81,2.81,0,0,0,2.8-2.07l.23-1-2.46.12c-1.48.06-2.36.67-2.36,1.61S386.51,399.55,387.57,399.55Zm13.93,1.54c-1.51,0-2.58-.72-2.58-2.08a4.74,4.74,0,0,1,.1-.87l1.19-5.46h-1.66l.34-1.68h1.66l.53-2.55h2l-.55,2.55h2.23l-.35,1.68h-2.21l-1.08,4.95a4.17,4.17,0,0,0-.1.77c0,.69.45,1,1.22,1a5.25,5.25,0,0,0,.73,0l-.34,1.64A4.72,4.72,0,0,1,401.5,401.09Zm18.35-13.41h4.09c3.61,0,5.7,2.13,5.7,5.66,0,4.43-3,7.7-6.93,7.7H417Zm1.73,1.87-2.09,9.62h3.17c2.78,0,4.84-2.35,4.84-5.64,0-2.49-1.43-4-3.87-4Zm16.29-.35a1.3,1.3,0,0,1,0-2.6,1.3,1.3,0,0,1,0,2.6ZM434.12,401,436.26,391h2L436.11,401Zm9,0,1.76-8.36H443.2l.34-1.68h1.65l.2-1.05c.39-2,1.5-2.84,3.56-2.84a5.91,5.91,0,0,1,1.32.16l-.33,1.56a4.93,4.93,0,0,0-1-.09,1.48,1.48,0,0,0-1.58,1.38l-.17.88h2.24l-.33,1.68h-2.23L445.12,401Zm10.54,0,1.76-8.36h-1.66l.34-1.68h1.65l.2-1.05c.39-2,1.5-2.84,3.56-2.84a5.91,5.91,0,0,1,1.32.16l-.33,1.56a4.93,4.93,0,0,0-1-.09,1.48,1.48,0,0,0-1.58,1.38l-.17.88H460l-.33,1.68h-2.23L455.66,401Zm14.18.19A4,4,0,0,1,463.6,397c0-3.7,2.18-6.2,5.31-6.2a3.88,3.88,0,0,1,4,4.14,12,12,0,0,1-.13,1.57h-7.17c0,.13,0,.28,0,.41a2.34,2.34,0,0,0,2.38,2.61,2.37,2.37,0,0,0,2.32-1.17h2C471.87,400,470.22,401.23,467.82,401.23Zm-2-6.22h5.06a3.59,3.59,0,0,0,0-.4,2,2,0,0,0-2.13-2.16A3.14,3.14,0,0,0,465.83,395Zm11.6,6L479.57,391h1.94l-.28,1.33h.15a2.93,2.93,0,0,1,2.63-1.49,3.91,3.91,0,0,1,1.22.16l-.42,1.95a5.87,5.87,0,0,0-1.36-.19c-1.51,0-2.4.82-2.77,2.54L479.44,401Zm15.64.19a4,4,0,0,1-4.22-4.27c0-3.7,2.18-6.2,5.31-6.2a3.89,3.89,0,0,1,4,4.14,10.52,10.52,0,0,1-.14,1.57h-7.16c0,.13,0,.28,0,.41a2.33,2.33,0,0,0,2.38,2.61,2.37,2.37,0,0,0,2.32-1.17h2C497.11,400,495.46,401.23,493.07,401.23Zm-2-6.22h5.06a3.59,3.59,0,0,0,0-.4,2,2,0,0,0-2.13-2.16A3.13,3.13,0,0,0,491.08,395Zm11.67,6L504.89,391h1.93l-.33,1.55h.15a3.55,3.55,0,0,1,3.07-1.71,2.91,2.91,0,0,1,3.06,3,5.51,5.51,0,0,1-.13,1.17L511.36,401h-2l1.22-5.73a4.4,4.4,0,0,0,.11-.89,1.74,1.74,0,0,0-1.92-1.84,2.8,2.8,0,0,0-2.71,2.4L504.76,401Zm18.5,0c-1.51,0-2.58-.72-2.58-2.08a4.06,4.06,0,0,1,.11-.87l1.18-5.46H518.3l.34-1.68h1.66l.53-2.55h2L522.3,391h2.24l-.36,1.68H522l-1.07,4.95a3.46,3.46,0,0,0-.1.77c0,.69.44,1,1.21,1a5.16,5.16,0,0,0,.73,0l-.33,1.64A4.86,4.86,0,0,1,521.25,401.09Zm10.62-11.89a1.3,1.3,0,1,1,1.26-1.29A1.28,1.28,0,0,1,531.87,389.2ZM528.12,401,530.26,391h2L530.11,401Zm11.4.16a2.85,2.85,0,0,1-3-2.76c0-2,1.59-3.24,4.4-3.35l2.72-.11.15-.66a2.73,2.73,0,0,0,0-.42c0-.88-.75-1.41-2-1.41a2,2,0,0,0-2.06,1.1h-2c.44-1.74,2.07-2.83,4.21-2.83s3.81,1.15,3.81,2.89a3.65,3.65,0,0,1-.08.81L544.3,401h-1.92l.27-1.29h-.16A3.65,3.65,0,0,1,539.52,401.2Zm.74-1.65a2.81,2.81,0,0,0,2.8-2.07l.23-1-2.46.12c-1.48.06-2.36.67-2.36,1.61S539.2,399.55,540.26,399.55Zm13.92,1.54c-1.5,0-2.57-.72-2.57-2.08a4.74,4.74,0,0,1,.1-.87l1.18-5.46h-1.65l.33-1.68h1.67l.53-2.55h2l-.55,2.55h2.23l-.35,1.68H554.9l-1.07,4.95a4.17,4.17,0,0,0-.1.77c0,.69.44,1,1.21,1a5.07,5.07,0,0,0,.73,0l-.33,1.64A4.76,4.76,0,0,1,554.18,401.09Zm11.44.14A4,4,0,0,1,561.4,397c0-3.7,2.18-6.2,5.31-6.2a3.89,3.89,0,0,1,4,4.14,12,12,0,0,1-.14,1.57h-7.17c0,.13,0,.28,0,.41a2.34,2.34,0,0,0,2.38,2.61,2.37,2.37,0,0,0,2.32-1.17h2C569.67,400,568,401.23,565.62,401.23Zm-2-6.22h5.06a3.59,3.59,0,0,0,0-.4,2,2,0,0,0-2.12-2.16A3.14,3.14,0,0,0,563.63,395Zm12.9-1.13c0-1.87,1.65-3.12,3.92-3.12s3.7,1.15,3.92,2.86h-1.9a1.89,1.89,0,0,0-2-1.24c-1.13,0-1.94.55-1.94,1.3,0,.54.44.92,1.3,1.2l1.47.5c1.66.55,2.37,1.36,2.37,2.69,0,1.86-1.75,3.16-4.18,3.16s-4-1.2-4.11-3h2a2.07,2.07,0,0,0,2.18,1.37c1.25,0,2.11-.55,2.11-1.35,0-.52-.3-.91-1.18-1.2l-1.55-.51C577.3,396,576.53,395.21,576.53,393.88Z" transform="translate(-132.4 -315.58)"/><rect class="cls-1" x="89.04" y="62.09" width="362.93" height="0.62"/></svg>
