<svg id="Layer_1" data-name="Layer 1" xmlns="http://www.w3.org/2000/svg" viewBox="0 0 451.97 86.36"><defs><style>.cls-1{fill:#0567e1;}</style></defs><path class="cls-1" d="M187.13,342.61c-.39-.2-.78-.41-1.2-.61,0,0,8.46,4.83-2.23,14.19s-21.09,17.18-24.48,20.12S144.2,389,158,395.55a7.1,7.1,0,0,1-.63-3.09c.12-3.06,2.48-5.14,4.77-7.15,1.9-1.66,4.59-3.82,8-6.56,4.36-3.5,9.8-7.85,16.63-13.6,7.88-6.63,8.28-10.86,6.87-14.91A13.9,13.9,0,0,0,187.13,342.61Z" transform="translate(-134.38 -314.83)"/><path class="cls-1" d="M201,358.32a14.53,14.53,0,0,0-2.47-6.28,13.24,13.24,0,0,1-1.71,8.1,30.09,30.09,0,0,1-7,7.92c-6.89,5.81-12.37,10.2-16.77,13.72-3.4,2.72-6.07,4.86-7.91,6.48-.76.66-1.4,1.24-1.94,1.79-3.89,3.45-.36,7.74,3.19,8.72a2.87,2.87,0,0,1,0-.31c-.43-3.59,4.57-6.8,7.26-8.53A158.43,158.43,0,0,0,189,378.58c4.17-3.43,8.58-7.14,10.78-12.22.11-.25.21-.5.31-.76A16.69,16.69,0,0,0,201,358.32Z" transform="translate(-134.38 -314.83)"/><path class="cls-1" d="M204.82,364.29a4.14,4.14,0,0,1-.33,1.4c-.15.53-.32,1.05-.52,1.56a19.09,19.09,0,0,1-1.53,3.15c-2.81,4.73-7.32,8.43-11.51,11.89-.93.76-1.86,1.51-2.8,2.25-2.53,2-5.14,3.86-7.79,5.68-2.49,1.7-5.15,3.22-7.47,5.17a7.27,7.27,0,0,0-2.13,2.42v0l0,.12a1.46,1.46,0,0,0-.09.63s0,0,0,0c.1,2,4,1.9,4,1.9-.45-.46,0-1.07.37-1.43a16.33,16.33,0,0,1,3.44-2.49c3.16-1.95,6.22-4,9.25-6.15,2.5-1.79,5-3.6,7.33-5.6,1.13-1,2.22-2,3.25-3.06a30.33,30.33,0,0,0,5.58-7.5c.26-.59.49-1.2.69-1.81a15.77,15.77,0,0,0,.79-5.09A26.83,26.83,0,0,0,204.82,364.29Z" transform="translate(-134.38 -314.83)"/><path class="cls-1" d="M206.27,376.39a23.39,23.39,0,0,1-3.47,5.94c-.5.68-1,1.34-1.59,2l-.08.09c-4.37,4.95-10.16,8.51-14.87,11.6l-4.56,2.81-.63.38c-.93.57-1.82,1.08-2.6,1.53l-.82.48.23,0C193,399.06,204.79,389,206.27,376.39Z" transform="translate(-134.38 -314.83)"/><path class="cls-1" d="M153.52,373.42l1.2.6s-8.46-4.82,2.22-14.18,21.1-17.18,24.49-20.13,15-12.7,1.21-19.24a7.26,7.26,0,0,1,.63,3.1c-.12,3.05-2.48,5.13-4.77,7.14-1.9,1.67-4.59,3.83-8,6.56-4.37,3.5-9.8,7.85-16.64,13.61-7.87,6.63-8.27,10.86-6.86,14.9A13.87,13.87,0,0,0,153.52,373.42Z" transform="translate(-134.38 -314.83)"/><path class="cls-1" d="M139.64,357.71a14.52,14.52,0,0,0,2.47,6.28,11.93,11.93,0,0,1,.92-6.5,10.89,10.89,0,0,1,.79-1.61,30.36,30.36,0,0,1,7-7.92c6.9-5.81,12.38-10.19,16.78-13.72,3.39-2.72,6.07-4.86,7.91-6.48.75-.66,1.4-1.24,1.93-1.78,3.9-3.45.37-7.75-3.19-8.72,0,.1,0,.2.06.3.43,3.6-4.57,6.81-7.26,8.53a158.43,158.43,0,0,0-15.41,11.35c-4.17,3.43-8.58,7.14-10.78,12.22-.11.25-.22.51-.31.77A16.69,16.69,0,0,0,139.64,357.71Z" transform="translate(-134.38 -314.83)"/><path class="cls-1" d="M135.83,351.74a4.25,4.25,0,0,1,.33-1.41c.15-.52.32-1.05.52-1.56a19.9,19.9,0,0,1,1.53-3.15c2.81-4.72,7.32-8.42,11.51-11.88.92-.77,1.86-1.52,2.8-2.25,2.53-2,5.14-3.87,7.79-5.68,2.49-1.71,5.15-3.23,7.47-5.17a7.42,7.42,0,0,0,2.13-2.43v0a.66.66,0,0,0,0-.11,1.5,1.5,0,0,0,.1-.64,0,0,0,0,1,0,0c-.1-2-4-1.9-4-1.9.44.45,0,1.07-.37,1.42a15.65,15.65,0,0,1-3.44,2.49c-3.16,2-6.22,4-9.25,6.16-2.5,1.78-5,3.59-7.33,5.6-1.13,1-2.22,2-3.25,3.05a30.57,30.57,0,0,0-5.58,7.51,18.75,18.75,0,0,0-.69,1.81,15.73,15.73,0,0,0-.79,5.09A27.16,27.16,0,0,0,135.83,351.74Z" transform="translate(-134.38 -314.83)"/><path class="cls-1" d="M134.38,339.63a22.89,22.89,0,0,1,3.47-5.93c.5-.68,1-1.34,1.59-2l.08-.09c4.37-4.94,10.16-8.51,14.87-11.59,1.58-1,3.1-1.92,4.56-2.81l.63-.39c.93-.57,1.82-1.08,2.59-1.53l.83-.48-.23,0C147.62,317,135.86,327.08,134.38,339.63Z" transform="translate(-134.38 -314.83)"/><path class="cls-1" d="M249.51,353.45l-5.34-1c-6-1.14-8.41-2.83-8.41-5.83,0-3.48,3.18-5.72,8.11-5.72,4.27,0,7.16,1.56,8.84,4.77a6,6,0,0,0,5.8,3.3c3.06,0,5.05-1.86,5.05-4.65a6.72,6.72,0,0,0-.51-2.67c-2.45-6.42-9.49-10.1-19.29-10.1-12.06,0-20.16,6.42-20.16,16,0,7.69,5.16,12.56,15.35,14.48l5.37,1c5.42,1,8.77,2.42,8.77,6s-3.7,6-9,6c-4.73,0-8.15-1.69-9.88-4.88-1.52-2.32-3.08-3.23-5.55-3.23a4.87,4.87,0,0,0-5.23,5,7.63,7.63,0,0,0,.64,3.08c2.35,5.85,9.76,9.33,19.81,9.33,13.19,0,21.38-6.36,21.38-16.59C265.25,360,260.4,355.54,249.51,353.45Z" transform="translate(-134.38 -314.83)"/><path class="cls-1" d="M297,331.54c-15.55,0-25.21,10.13-25.21,26.43s9.66,26.4,25.21,26.4,25.17-10.12,25.17-26.4S312.47,331.54,297,331.54Zm0,43.08c-7.73,0-12.73-6.53-12.73-16.65s5-16.69,12.73-16.69,12.72,6.55,12.72,16.69S304.67,374.62,297,374.62Z" transform="translate(-134.38 -314.83)"/><path class="cls-1" d="M358.32,331.54H334.74c-3.9,0-6.14,2.38-6.14,6.55v39.77c0,4.2,2.18,6.51,6.14,6.51s6.1-2.31,6.1-6.51V363.79h15.78c3.19,0,5-1.69,5-4.64s-1.87-4.68-5-4.68H340.84V341.4h17.48c3.32,0,5.38-1.89,5.38-4.93S361.69,331.54,358.32,331.54Z" transform="translate(-134.38 -314.83)"/><path class="cls-1" d="M407.07,331.54H375.6c-3.4,0-5.42,1.84-5.42,4.93s2,4.93,5.42,4.93h9.62v36.46c0,4.2,2.16,6.51,6.1,6.51s6.09-2.31,6.09-6.51V341.4h9.66c3.32,0,5.38-1.89,5.38-4.93S410.44,331.54,407.07,331.54Z" transform="translate(-134.38 -314.83)"/><path class="cls-1" d="M454.54,374.45H433.82v-1L456.6,342a7.59,7.59,0,0,0,1.84-4.62c0-3.63-2.35-5.88-6.13-5.88h-28c-3.37,0-5.38,1.87-5.38,5s2,5,5.38,5H443.9v1l-.1.13-22.9,31.39a7.45,7.45,0,0,0-1.73,4.78c0,3.41,2.39,5.62,6.1,5.62h29.27c3.32,0,5.38-1.92,5.38-5S457.91,374.45,454.54,374.45Z" transform="translate(-134.38 -314.83)"/><path class="cls-1" d="M472.33,331.54c-4,0-6.14,2.28-6.14,6.42v40.1c0,4.15,2.18,6.43,6.14,6.43s6.1-2.28,6.1-6.43V338C478.43,333.82,476.26,331.54,472.33,331.54Z" transform="translate(-134.38 -314.83)"/><path class="cls-1" d="M523.61,331.54c-3.73,0-5.78,2.16-5.78,6.08v25.09h-1l-20-27.69c-1.91-2.5-3.57-3.48-5.91-3.48-3.87,0-5.92,2-5.92,5.79v40.95c0,3.93,2,6.09,5.78,6.09s5.77-2.16,5.77-6.09V352.91h1l20.2,28c1.84,2.55,3.45,3.49,5.94,3.49,3.76,0,5.74-2,5.74-5.73v-41C529.38,333.7,527.33,331.54,523.61,331.54Z" transform="translate(-134.38 -314.83)"/><path class="cls-1" d="M561.17,331.54C545.62,331.54,536,341.67,536,358s9.66,26.4,25.21,26.4,25.18-10.12,25.18-26.4S576.7,331.54,561.17,331.54Zm0,43.08c-7.72,0-12.72-6.53-12.72-16.65s5-16.69,12.72-16.69,12.72,6.55,12.72,16.69S568.9,374.62,561.17,374.62Z" transform="translate(-134.38 -314.83)"/></svg>