<svg id="Layer_1" data-name="Layer 1" xmlns="http://www.w3.org/2000/svg" viewBox="0 0 512 512"><defs><style>.cls-1{fill:#0567e1;}.cls-2{fill:#fff;}</style></defs><rect class="cls-1" width="512" height="512" rx="113.06"/><path class="cls-2" d="M431.24,284.09c-1.63-.86-3.31-1.72-5.09-2.57,0,0,35.86,20.44-9.43,60.13S327.31,414.48,312.93,427c-14.19,12.32-63.69,53.88-5.15,81.57a30.2,30.2,0,0,1-2.65-13.12c.49-12.93,10.52-21.76,20.22-30.29,8-7.06,19.47-16.21,33.93-27.8,18.53-14.83,41.58-33.29,70.54-57.68,33.37-28.1,35.08-46,29.1-63.19A58.81,58.81,0,0,0,431.24,284.09Z" transform="translate(-104 -93.39)"/><path class="cls-2" d="M490.08,350.68c-1.46-12.4-7.09-21.31-10.46-26.62a51,51,0,0,1-3.89,27.56,51.63,51.63,0,0,1-3.37,6.79c-5.75,10.18-15.16,21.31-29.74,33.59-29.23,24.61-52.46,43.21-71.13,58.16-14.37,11.51-25.73,20.61-33.53,27.46-3.18,2.8-5.92,5.27-8.19,7.56-16.51,14.63-1.55,32.85,13.53,37-.09-.43-.17-.86-.22-1.3-1.84-15.25,19.37-28.85,30.77-36.16,22.81-14.63,43.2-29.95,65.3-48.12,17.69-14.54,36.4-30.27,45.73-51.8.46-1.07.9-2.15,1.31-3.25A71.13,71.13,0,0,0,490.08,350.68Z" transform="translate(-104 -93.39)"/><path class="cls-2" d="M506.23,376c.31,1.53-1,4.45-1.41,5.95-.62,2.24-1.35,4.46-2.18,6.63a86.14,86.14,0,0,1-6.49,13.35c-11.92,20-31,35.72-48.8,50.39q-5.88,4.84-11.88,9.54c-10.73,8.4-21.76,16.39-33,24.08-10.56,7.22-21.86,13.67-31.67,21.91-3.38,2.83-7.21,6.13-9,10.27,0,0,0,.09,0,.13s-.13.28-.2.49a6,6,0,0,0-.39,2.69.8.8,0,0,0,0,.15c.43,8.31,16.72,8.06,16.72,8.06-1.86-1.92.17-4.54,1.58-6,4.12-4.39,9.5-7.45,14.58-10.58,13.42-8.27,26.36-16.95,39.21-26.09,10.63-7.56,21.2-15.23,31.1-23.74,4.78-4.1,9.4-8.4,13.78-12.93,9.17-9.49,17.77-19.95,23.64-31.84,1.1-2.49,2.08-5.05,2.94-7.66a67.59,67.59,0,0,0,3.34-21.58A108.83,108.83,0,0,0,506.23,376Z" transform="translate(-104 -93.39)"/><path class="cls-2" d="M512.38,427.3c-3,8.14-8,16.4-14.7,25.16-2.14,2.9-4.4,5.68-6.77,8.37l-.32.38c-18.53,21-43.06,36.09-63,49.15-6.69,4.2-13.13,8.13-19.32,11.92l-2.67,1.63c-3.95,2.41-7.7,4.58-11,6.5l-3.48,2c.32,0,.64,0,1-.07C456.24,523.41,506.1,480.52,512.38,427.3Z" transform="translate(-104 -93.39)"/><path class="cls-2" d="M288.76,414.68c1.63.86,3.31,1.72,5.09,2.57,0,0-35.86-20.44,9.43-60.13s89.41-72.83,103.79-85.3c14.19-12.31,63.69-53.88,5.15-81.57a30.23,30.23,0,0,1,2.65,13.12c-.49,12.93-10.52,21.76-20.22,30.29-8,7.06-19.47,16.21-33.93,27.8-18.53,14.83-41.58,33.29-70.54,57.68-33.37,28.1-35.08,46-29.1,63.19A58.81,58.81,0,0,0,288.76,414.68Z" transform="translate(-104 -93.39)"/><path class="cls-2" d="M229.92,348.09c1.46,12.4,7.09,21.32,10.46,26.62a51,51,0,0,1,3.89-27.56,52.26,52.26,0,0,1,3.37-6.79c5.75-10.18,15.16-21.31,29.74-33.59,29.23-24.61,52.46-43.21,71.13-58.16C362.88,237.1,374.24,228,382,221.15c3.18-2.8,5.92-5.27,8.19-7.56,16.51-14.63,1.55-32.85-13.53-37,.09.42.17.85.22,1.29,1.84,15.25-19.37,28.85-30.77,36.16-22.81,14.63-43.2,29.95-65.3,48.12-17.69,14.54-36.4,30.27-45.73,51.8-.46,1.07-.9,2.15-1.31,3.25A71.13,71.13,0,0,0,229.92,348.09Z" transform="translate(-104 -93.39)"/><path class="cls-2" d="M213.77,322.79c-.31-1.53,1-4.45,1.41-6,.62-2.24,1.35-4.46,2.18-6.63a85.6,85.6,0,0,1,6.49-13.34c11.92-20,31-35.73,48.8-50.4q5.88-4.84,11.88-9.54,16.1-12.59,33-24.08c10.56-7.22,21.86-13.67,31.67-21.91,3.38-2.83,7.21-6.13,9-10.27,0,0,0-.08,0-.13s.13-.28.2-.49a6,6,0,0,0,.39-2.69.8.8,0,0,0,0-.15c-.43-8.31-16.72-8.06-16.72-8.06,1.86,1.92-.17,4.54-1.58,6-4.12,4.39-9.5,7.44-14.58,10.57-13.42,8.27-26.36,17-39.21,26.09-10.63,7.56-21.2,15.23-31.1,23.74-4.78,4.11-9.4,8.4-13.78,12.94-9.17,9.48-17.77,19.94-23.64,31.83-1.1,2.49-2.08,5.05-2.94,7.66a67.59,67.59,0,0,0-3.34,21.58A108.83,108.83,0,0,0,213.77,322.79Z" transform="translate(-104 -93.39)"/><path class="cls-2" d="M207.62,271.47c3-8.14,8-16.4,14.7-25.16q3.21-4.34,6.77-8.37l.32-.38c18.53-21,43.06-36.09,63-49.15,6.69-4.19,13.13-8.13,19.32-11.92l2.67-1.63c3.95-2.41,7.7-4.58,11-6.5l3.48-2c-.32,0-.64,0-1,.07C263.76,175.36,213.9,218.25,207.62,271.47Z" transform="translate(-104 -93.39)"/></svg>