<svg id="Layer_1" data-name="Layer 1" xmlns="http://www.w3.org/2000/svg" viewBox="0 0 362.93 52.95"><defs><style>.cls-1{fill:#0567e1;}</style></defs><path class="cls-1" d="M204.93,353.42l-5.34-1c-6-1.14-8.41-2.83-8.41-5.83,0-3.48,3.18-5.73,8.11-5.73,4.27,0,7.16,1.57,8.84,4.78a6,6,0,0,0,5.8,3.3c3.07,0,5-1.86,5-4.66a6.84,6.84,0,0,0-.5-2.66c-2.46-6.42-9.49-10.11-19.3-10.11-12.06,0-20.16,6.43-20.16,16,0,7.69,5.16,12.56,15.35,14.48l5.37,1c5.42,1,8.77,2.42,8.77,6s-3.7,6-9,6c-4.73,0-8.15-1.69-9.89-4.88-1.52-2.32-3.08-3.23-5.55-3.23a4.87,4.87,0,0,0-5.23,5.05,7.8,7.8,0,0,0,.64,3.08c2.36,5.85,9.76,9.33,19.81,9.33,13.19,0,21.39-6.36,21.39-16.59C220.68,359.92,215.82,355.5,204.93,353.42Z" transform="translate(-178.84 -331.5)"/><path class="cls-1" d="M252.37,331.5c-15.55,0-25.21,10.13-25.21,26.44s9.66,26.4,25.21,26.4,25.17-10.12,25.17-26.4S267.9,331.5,252.37,331.5Zm0,43.09c-7.73,0-12.72-6.54-12.72-16.65s5-16.69,12.72-16.69,12.72,6.55,12.72,16.69S260.1,374.59,252.37,374.59Z" transform="translate(-178.84 -331.5)"/><path class="cls-1" d="M313.74,331.5H290.16c-3.9,0-6.13,2.39-6.13,6.55v39.78c0,4.2,2.17,6.51,6.13,6.51s6.1-2.31,6.1-6.51V363.75h15.79c3.19,0,5-1.69,5-4.63s-1.87-4.68-5-4.68H296.26V341.37h17.48c3.32,0,5.38-1.89,5.38-4.93S317.11,331.5,313.74,331.5Z" transform="translate(-178.84 -331.5)"/><path class="cls-1" d="M362.5,331.5H331c-3.39,0-5.42,1.85-5.42,4.94s2,4.93,5.42,4.93h9.62v36.46c0,4.2,2.17,6.51,6.1,6.51s6.1-2.31,6.1-6.51V341.37h9.66c3.31,0,5.37-1.89,5.37-4.93S365.86,331.5,362.5,331.5Z" transform="translate(-178.84 -331.5)"/><path class="cls-1" d="M410,374.42H389.24v-1L412,342a7.57,7.57,0,0,0,1.85-4.63c0-3.62-2.35-5.88-6.14-5.88h-28c-3.36,0-5.37,1.88-5.37,5s2,5,5.37,5h19.61v1l-.1.14-22.89,31.39a7.46,7.46,0,0,0-1.74,4.78c0,3.41,2.39,5.62,6.1,5.62H410c3.31,0,5.37-1.93,5.37-5S413.33,374.42,410,374.42Z" transform="translate(-178.84 -331.5)"/><path class="cls-1" d="M427.75,331.5c-3.95,0-6.13,2.29-6.13,6.43V378c0,4.14,2.18,6.43,6.13,6.43s6.1-2.29,6.1-6.43v-40.1C433.85,333.79,431.69,331.5,427.75,331.5Z" transform="translate(-178.84 -331.5)"/><path class="cls-1" d="M479,331.5c-3.72,0-5.78,2.17-5.78,6.09v25.09h-1l-20-27.69c-1.91-2.51-3.56-3.49-5.91-3.49-3.87,0-5.91,2-5.91,5.8v40.95c0,3.93,2.05,6.09,5.77,6.09s5.78-2.16,5.78-6.09V352.88h1l20.19,28c1.84,2.54,3.45,3.49,5.95,3.49,3.75,0,5.74-2,5.74-5.73v-41C484.81,333.67,482.75,331.5,479,331.5Z" transform="translate(-178.84 -331.5)"/><path class="cls-1" d="M516.59,331.5c-15.54,0-25.2,10.13-25.2,26.44s9.66,26.4,25.2,26.4,25.18-10.12,25.18-26.4S532.12,331.5,516.59,331.5Zm0,43.09c-7.72,0-12.71-6.54-12.71-16.65s5-16.69,12.71-16.69,12.73,6.55,12.73,16.69S524.32,374.59,516.59,374.59Z" transform="translate(-178.84 -331.5)"/></svg>