<svg id="Layer_1" data-name="Layer 1" xmlns="http://www.w3.org/2000/svg" viewBox="0 0 71.89 86.36"><defs><style>.cls-1{fill:#0567e1;}</style></defs><path class="cls-1" d="M376.81,343.36l-1.21-.61s8.46,4.83-2.22,14.19-21.09,17.18-24.48,20.12-15,12.71-1.22,19.24a7.08,7.08,0,0,1-.62-3.09c.11-3,2.48-5.14,4.77-7.15,1.89-1.66,4.59-3.82,8-6.56,4.37-3.49,9.81-7.85,16.64-13.6,7.87-6.63,8.28-10.86,6.86-14.91A13.83,13.83,0,0,0,376.81,343.36Z" transform="translate(-324.05 -315.58)"/><path class="cls-1" d="M390.69,359.07a14.66,14.66,0,0,0-2.47-6.28,13,13,0,0,1-1.72,8.1,29.84,29.84,0,0,1-7,7.92c-6.89,5.81-12.38,10.2-16.78,13.73-3.39,2.71-6.07,4.86-7.91,6.47-.75.66-1.4,1.25-1.93,1.79-3.9,3.45-.37,7.74,3.19,8.72,0-.1,0-.2-.05-.3-.44-3.6,4.57-6.81,7.26-8.54a157.11,157.11,0,0,0,15.4-11.35c4.17-3.43,8.59-7.14,10.79-12.21.11-.26.21-.51.31-.77A17,17,0,0,0,390.69,359.07Z" transform="translate(-324.05 -315.58)"/><path class="cls-1" d="M394.5,365a4.16,4.16,0,0,1-.34,1.4q-.23.8-.51,1.56a20.83,20.83,0,0,1-1.53,3.15c-2.82,4.73-7.32,8.43-11.52,11.89-.92.76-1.85,1.51-2.8,2.25q-3.8,3-7.78,5.68a89.37,89.37,0,0,0-7.47,5.17,7.27,7.27,0,0,0-2.13,2.42v0l-.05.12a1.32,1.32,0,0,0-.09.63.06.06,0,0,0,0,0c.1,2,3.94,1.9,3.94,1.9-.44-.45,0-1.07.37-1.42a16,16,0,0,1,3.44-2.5c3.17-1.95,6.22-4,9.25-6.15,2.51-1.79,5-3.6,7.34-5.6,1.12-1,2.21-2,3.25-3.06a30.58,30.58,0,0,0,5.58-7.5c.25-.59.49-1.2.69-1.81a16.34,16.34,0,0,0,.79-5.09A26.83,26.83,0,0,0,394.5,365Z" transform="translate(-324.05 -315.58)"/><path class="cls-1" d="M396,377.14a23.39,23.39,0,0,1-3.47,5.94c-.51.68-1,1.34-1.6,2l-.08.09c-4.37,4.95-10.15,8.51-14.87,11.6l-4.56,2.81-.62.38c-.94.57-1.82,1.08-2.6,1.53l-.82.48.22,0C382.7,399.81,394.46,389.7,396,377.14Z" transform="translate(-324.05 -315.58)"/><path class="cls-1" d="M343.19,374.17l1.21.6s-8.46-4.82,2.22-14.18,21.09-17.18,24.48-20.12,15-12.71,1.22-19.25a7.1,7.1,0,0,1,.62,3.1c-.11,3.05-2.48,5.13-4.77,7.14-1.89,1.67-4.59,3.83-8,6.56-4.37,3.5-9.81,7.85-16.64,13.61-7.87,6.63-8.28,10.86-6.86,14.9A13.85,13.85,0,0,0,343.19,374.17Z" transform="translate(-324.05 -315.58)"/><path class="cls-1" d="M329.31,358.46a14.72,14.72,0,0,0,2.47,6.28,13.16,13.16,0,0,1,1.72-8.11,30,30,0,0,1,7-7.92c6.89-5.8,12.38-10.19,16.78-13.72,3.39-2.71,6.07-4.86,7.91-6.48.75-.66,1.4-1.24,1.93-1.78,3.9-3.45.37-7.75-3.19-8.72,0,.1,0,.2.05.3.44,3.6-4.57,6.81-7.26,8.53a158.75,158.75,0,0,0-15.4,11.35c-4.17,3.43-8.59,7.14-10.79,12.22-.11.25-.21.51-.31.77A17,17,0,0,0,329.31,358.46Z" transform="translate(-324.05 -315.58)"/><path class="cls-1" d="M325.5,352.49a4.16,4.16,0,0,1,.34-1.4c.15-.53.32-1.06.51-1.57a21.79,21.79,0,0,1,1.53-3.15c2.82-4.72,7.32-8.42,11.52-11.88.92-.77,1.85-1.52,2.8-2.25q3.8-3,7.78-5.68c2.49-1.71,5.16-3.23,7.47-5.17a7.37,7.37,0,0,0,2.13-2.42v0l.05-.11a1.35,1.35,0,0,0,.09-.64,0,0,0,0,0,0,0c-.1-2-3.94-1.9-3.94-1.9.44.45,0,1.07-.37,1.42a16,16,0,0,1-3.44,2.5c-3.17,1.95-6.22,4-9.25,6.15-2.51,1.78-5,3.59-7.34,5.6-1.12,1-2.21,2-3.25,3.05a30.83,30.83,0,0,0-5.58,7.51c-.25.59-.49,1.19-.69,1.81a16.34,16.34,0,0,0-.79,5.09A27.16,27.16,0,0,0,325.5,352.49Z" transform="translate(-324.05 -315.58)"/><path class="cls-1" d="M324.05,340.38a23.34,23.34,0,0,1,3.47-5.93c.51-.68,1-1.34,1.6-2l.08-.08c4.37-4.95,10.15-8.52,14.87-11.6,1.58-1,3.09-1.92,4.56-2.81l.62-.38c.94-.57,1.82-1.09,2.6-1.54l.82-.48-.22,0C337.3,317.71,325.54,327.83,324.05,340.38Z" transform="translate(-324.05 -315.58)"/></svg>