<svg id="Layer_1" data-name="Layer 1" xmlns="http://www.w3.org/2000/svg" viewBox="0 0 362.93 84.94"><defs><style>.cls-1{fill:#0567e1;}</style></defs><path class="cls-1" d="M204.93,337.93l-5.34-1c-6-1.14-8.41-2.83-8.41-5.83,0-3.47,3.18-5.72,8.11-5.72,4.27,0,7.16,1.56,8.84,4.77a6,6,0,0,0,5.8,3.3c3.07,0,5-1.86,5-4.65a6.89,6.89,0,0,0-.5-2.67C216,319.7,209,316,199.18,316c-12.06,0-20.16,6.42-20.16,16,0,7.68,5.16,12.55,15.35,14.47l5.37,1c5.42,1,8.77,2.42,8.77,6s-3.7,6-9,6c-4.73,0-8.15-1.69-9.89-4.88-1.52-2.31-3.08-3.23-5.55-3.23a4.87,4.87,0,0,0-5.23,5.05,7.8,7.8,0,0,0,.64,3.08c2.36,5.85,9.76,9.33,19.81,9.33,13.19,0,21.39-6.36,21.39-16.59C220.68,344.44,215.82,340,204.93,337.93Z" transform="translate(-178.84 -316.02)"/><path class="cls-1" d="M252.37,316c-15.55,0-25.21,10.13-25.21,26.43s9.66,26.4,25.21,26.4,25.17-10.11,25.17-26.4S267.9,316,252.37,316Zm0,43.08c-7.73,0-12.72-6.53-12.72-16.65s5-16.69,12.72-16.69,12.72,6.55,12.72,16.69S260.1,359.1,252.37,359.1Z" transform="translate(-178.84 -316.02)"/><path class="cls-1" d="M313.74,316H290.16c-3.9,0-6.13,2.38-6.13,6.55v39.77c0,4.2,2.17,6.51,6.13,6.51s6.1-2.31,6.1-6.51V348.27h15.79c3.19,0,5-1.69,5-4.64s-1.87-4.68-5-4.68H296.26V325.88h17.48c3.32,0,5.38-1.89,5.38-4.93S317.11,316,313.74,316Z" transform="translate(-178.84 -316.02)"/><path class="cls-1" d="M362.5,316H331c-3.39,0-5.42,1.84-5.42,4.93s2,4.93,5.42,4.93h9.62v36.46c0,4.2,2.17,6.51,6.1,6.51s6.1-2.31,6.1-6.51V325.88h9.66c3.31,0,5.37-1.89,5.37-4.93S365.86,316,362.5,316Z" transform="translate(-178.84 -316.02)"/><path class="cls-1" d="M410,358.93H389.24v-1L412,326.52a7.54,7.54,0,0,0,1.85-4.62c0-3.63-2.35-5.88-6.14-5.88h-28c-3.36,0-5.37,1.87-5.37,5s2,5,5.37,5h19.61v1l-.1.14-22.89,31.39a7.41,7.41,0,0,0-1.74,4.77c0,3.41,2.39,5.62,6.1,5.62H410c3.31,0,5.37-1.92,5.37-5S413.33,358.93,410,358.93Z" transform="translate(-178.84 -316.02)"/><path class="cls-1" d="M427.75,316c-3.95,0-6.13,2.28-6.13,6.43v40.09c0,4.15,2.18,6.43,6.13,6.43s6.1-2.28,6.1-6.43V322.45C433.85,318.3,431.69,316,427.75,316Z" transform="translate(-178.84 -316.02)"/><path class="cls-1" d="M479,316c-3.72,0-5.78,2.16-5.78,6.09v25.08h-1l-20-27.69c-1.91-2.5-3.56-3.48-5.91-3.48-3.87,0-5.91,2-5.91,5.8v40.94c0,3.93,2.05,6.09,5.77,6.09s5.78-2.16,5.78-6.09V337.39h1l20.19,28c1.84,2.54,3.45,3.48,5.95,3.48,3.75,0,5.74-2,5.74-5.72v-41C484.81,318.18,482.75,316,479,316Z" transform="translate(-178.84 -316.02)"/><path class="cls-1" d="M516.59,316c-15.54,0-25.2,10.13-25.2,26.43s9.66,26.4,25.2,26.4,25.18-10.11,25.18-26.4S532.12,316,516.59,316Zm0,43.08c-7.72,0-12.71-6.53-12.71-16.65s5-16.69,12.71-16.69,12.73,6.55,12.73,16.69S524.32,359.1,516.59,359.1Z" transform="translate(-178.84 -316.02)"/><path class="cls-1" d="M180.94,400.76h-2.1l2.84-13.36h2.1Zm6.42,0,2.14-10.08h1.94l-.34,1.54h.16a3.53,3.53,0,0,1,3.06-1.71,2.91,2.91,0,0,1,3.07,3,6.44,6.44,0,0,1-.13,1.18L196,400.76h-2l1.23-5.73a4.31,4.31,0,0,0,.11-.89,1.74,1.74,0,0,0-1.92-1.83,2.78,2.78,0,0,0-2.71,2.39l-1.3,6.06Zm14.71,0,2.14-10.08h1.93l-.33,1.54H206a3.53,3.53,0,0,1,3.06-1.71,2.91,2.91,0,0,1,3.07,3,6.44,6.44,0,0,1-.13,1.18l-1.29,6.08h-2l1.22-5.73a3.72,3.72,0,0,0,.11-.89,1.73,1.73,0,0,0-1.91-1.83,2.79,2.79,0,0,0-2.72,2.39l-1.29,6.06Zm20.72-10.28a4,4,0,0,1,4.23,4.27c0,3.57-2.3,6.2-5.44,6.2a4,4,0,0,1-4.26-4.27C217.32,393.08,219.61,390.48,222.79,390.48Zm-1,8.7c1.74,0,3.15-1.87,3.15-4.15,0-1.73-.86-2.78-2.28-2.78-1.89,0-3.22,1.78-3.22,4.29A2.35,2.35,0,0,0,221.77,399.18Zm10.58-8.5h2l1,7.73h.15l4.1-7.73h2.16L236,400.76h-2.19Zm15.48,10.25a2.87,2.87,0,0,1-3.06-2.77c0-2,1.59-3.24,4.4-3.34l2.72-.12.15-.65a2.16,2.16,0,0,0,.06-.43c0-.88-.75-1.41-2-1.41a2,2,0,0,0-2.05,1.11h-2c.43-1.74,2.06-2.84,4.2-2.84,2.3,0,3.82,1.15,3.82,2.89a3.75,3.75,0,0,1-.09.82l-1.4,6.57h-1.92l.27-1.29h-.15A3.69,3.69,0,0,1,247.83,400.93Zm.73-1.66a2.8,2.8,0,0,0,2.8-2.07l.24-1-2.47.11c-1.48.06-2.36.67-2.36,1.61S247.5,399.27,248.56,399.27Zm13.93,1.55c-1.51,0-2.58-.73-2.58-2.09a4.14,4.14,0,0,1,.11-.87l1.18-5.46h-1.66l.34-1.68h1.66l.53-2.55h2l-.55,2.55h2.23l-.35,1.68h-2.21l-1.07,5a3.54,3.54,0,0,0-.11.77c0,.7.45,1,1.22,1a5.25,5.25,0,0,0,.73,0l-.34,1.64A4.66,4.66,0,0,1,262.49,400.82Zm10.62-11.89a1.3,1.3,0,0,1,0-2.6,1.3,1.3,0,0,1,0,2.6Zm-3.75,11.83,2.14-10.08h2l-2.13,10.08Zm14.28-10.28a4,4,0,0,1,4.23,4.27c0,3.57-2.3,6.2-5.44,6.2a4,4,0,0,1-4.26-4.27C278.17,393.08,280.46,390.48,283.64,390.48Zm-1,8.7c1.74,0,3.16-1.87,3.16-4.15,0-1.73-.86-2.78-2.28-2.78-1.89,0-3.22,1.78-3.22,4.29A2.35,2.35,0,0,0,282.61,399.18Zm9.85,1.58,2.14-10.08h1.93l-.33,1.54h.16a3.53,3.53,0,0,1,3.06-1.71,2.91,2.91,0,0,1,3.07,3,6.44,6.44,0,0,1-.13,1.18l-1.29,6.08h-2l1.22-5.73a3.72,3.72,0,0,0,.11-.89,1.73,1.73,0,0,0-1.91-1.83,2.79,2.79,0,0,0-2.72,2.39l-1.29,6.06Zm27,.06c-1.51,0-2.58-.73-2.58-2.09a4.84,4.84,0,0,1,.1-.87l1.19-5.46h-1.66l.33-1.68h1.67l.53-2.55h2l-.55,2.55h2.23l-.35,1.68h-2.21l-1.08,5a4.17,4.17,0,0,0-.1.77c0,.7.45,1,1.21,1a5.31,5.31,0,0,0,.74,0l-.34,1.64A4.66,4.66,0,0,1,319.47,400.82Zm6.84-.06,3-14h2l-1.16,5.41h.15a3.42,3.42,0,0,1,3-1.7,2.92,2.92,0,0,1,3.11,3,5,5,0,0,1-.14,1.18L335,400.76h-2l1.22-5.77a4.16,4.16,0,0,0,.11-.89,1.74,1.74,0,0,0-1.95-1.82,2.8,2.8,0,0,0-2.75,2.39l-1.3,6.09Zm17.93.17a2.87,2.87,0,0,1-3.06-2.77c0-2,1.6-3.24,4.4-3.34l2.72-.12.15-.65a2.16,2.16,0,0,0,.06-.43c0-.88-.75-1.41-2-1.41a2,2,0,0,0-2.06,1.11h-2a4,4,0,0,1,4.2-2.84c2.3,0,3.82,1.15,3.82,2.89a4.47,4.47,0,0,1-.08.82l-1.4,6.57h-1.93l.27-1.29h-.15A3.69,3.69,0,0,1,344.24,400.93Zm.73-1.66a2.82,2.82,0,0,0,2.81-2.07l.23-1-2.46.11c-1.49.06-2.37.67-2.37,1.61S343.92,399.27,345,399.27Zm13.93,1.55c-1.51,0-2.57-.73-2.57-2.09a4.08,4.08,0,0,1,.1-.87l1.18-5.46H356l.33-1.68H358l.52-2.55h2l-.54,2.55h2.23l-.35,1.68h-2.22l-1.07,5a3.46,3.46,0,0,0-.1.77c0,.7.44,1,1.21,1a5.07,5.07,0,0,0,.73,0l-.33,1.64A4.8,4.8,0,0,1,358.9,400.82Zm18.35-13.42h4.09c3.61,0,5.71,2.13,5.71,5.67,0,4.42-3,7.69-6.94,7.69h-5.68Zm1.73,1.87-2.08,9.62h3.16c2.78,0,4.85-2.35,4.85-5.64,0-2.49-1.44-4-3.87-4Zm16.29-.34a1.3,1.3,0,1,1,1.26-1.3A1.29,1.29,0,0,1,395.27,388.93Zm-3.75,11.83,2.14-10.08h2l-2.13,10.08Zm9,0,1.75-8.36h-1.65l.33-1.68h1.66l.19-1.05c.39-2,1.5-2.84,3.57-2.84a5.81,5.81,0,0,1,1.31.16l-.32,1.57a4.27,4.27,0,0,0-1-.1,1.5,1.5,0,0,0-1.59,1.38l-.16.88h2.24l-.34,1.68h-2.23l-1.76,8.36Zm10.54,0,1.75-8.36h-1.65l.33-1.68h1.66l.19-1.05c.39-2,1.5-2.84,3.57-2.84a5.81,5.81,0,0,1,1.31.16l-.32,1.57a4.27,4.27,0,0,0-1-.1,1.5,1.5,0,0,0-1.59,1.38l-.16.88h2.24l-.34,1.68h-2.23l-1.76,8.36Zm14.17.19a4,4,0,0,1-4.22-4.26c0-3.71,2.19-6.21,5.32-6.21a3.89,3.89,0,0,1,4,4.14,12.35,12.35,0,0,1-.14,1.58H423c0,.13,0,.27,0,.4a2.34,2.34,0,0,0,2.38,2.61,2.39,2.39,0,0,0,2.33-1.16h2C429.27,399.73,427.62,401,425.22,401Zm-2-6.22h5.07a3.45,3.45,0,0,0,0-.4,2,2,0,0,0-2.13-2.15A3.13,3.13,0,0,0,423.23,394.73Zm11.61,6L437,390.68h1.93l-.28,1.32h.15a2.93,2.93,0,0,1,2.63-1.49,3.83,3.83,0,0,1,1.22.17l-.41,1.94a6,6,0,0,0-1.36-.18c-1.51,0-2.4.81-2.78,2.53l-1.23,5.79Zm15.63.19a4,4,0,0,1-4.22-4.26c0-3.71,2.18-6.21,5.31-6.21a3.88,3.88,0,0,1,4,4.14,12.31,12.31,0,0,1-.13,1.58h-7.17c0,.13,0,.27,0,.4a2.34,2.34,0,0,0,2.38,2.61,2.38,2.38,0,0,0,2.32-1.16h2C454.52,399.73,452.87,401,450.47,401Zm-2-6.22h5.06a3.45,3.45,0,0,0,0-.4,2,2,0,0,0-2.13-2.15A3.13,3.13,0,0,0,448.48,394.73Zm11.67,6,2.14-10.08h1.93l-.33,1.54h.16a3.53,3.53,0,0,1,3.06-1.71,2.91,2.91,0,0,1,3.07,3,6.44,6.44,0,0,1-.13,1.18l-1.29,6.08h-2L468,395a3.72,3.72,0,0,0,.11-.89,1.73,1.73,0,0,0-1.91-1.83,2.78,2.78,0,0,0-2.71,2.39l-1.3,6.06Zm18.5.06c-1.51,0-2.57-.73-2.57-2.09a4.84,4.84,0,0,1,.1-.87l1.19-5.46h-1.66l.33-1.68h1.67l.53-2.55h2l-.54,2.55h2.23l-.35,1.68h-2.21l-1.08,5a4.17,4.17,0,0,0-.1.77c0,.7.44,1,1.21,1a5.07,5.07,0,0,0,.73,0l-.33,1.64A4.75,4.75,0,0,1,478.65,400.82Zm10.62-11.89a1.3,1.3,0,1,1,1.27-1.3A1.28,1.28,0,0,1,489.27,388.93Zm-3.74,11.83,2.14-10.08h2l-2.12,10.08Zm11.4.17a2.87,2.87,0,0,1-3.06-2.77c0-2,1.6-3.24,4.4-3.34l2.72-.12.15-.65a2.16,2.16,0,0,0,.06-.43c0-.88-.75-1.41-2-1.41a2,2,0,0,0-2.06,1.11h-2c.43-1.74,2.06-2.84,4.2-2.84,2.3,0,3.82,1.15,3.82,2.89a3.75,3.75,0,0,1-.09.82l-1.4,6.57h-1.92l.27-1.29h-.15A3.69,3.69,0,0,1,496.93,400.93Zm.73-1.66a2.8,2.8,0,0,0,2.8-2.07l.23-1-2.46.11c-1.48.06-2.36.67-2.36,1.61S496.6,399.27,497.66,399.27Zm13.93,1.55c-1.51,0-2.58-.73-2.58-2.09a4.84,4.84,0,0,1,.1-.87l1.19-5.46h-1.66l.34-1.68h1.66l.53-2.55h2l-.54,2.55h2.22l-.35,1.68h-2.21l-1.07,5a3.54,3.54,0,0,0-.11.77c0,.7.45,1,1.22,1a5.07,5.07,0,0,0,.73,0l-.34,1.64A4.66,4.66,0,0,1,511.59,400.82ZM523,401a4,4,0,0,1-4.23-4.26c0-3.71,2.19-6.21,5.32-6.21a3.89,3.89,0,0,1,4,4.14,10.78,10.78,0,0,1-.14,1.58h-7.17c0,.13,0,.27,0,.4a2.33,2.33,0,0,0,2.37,2.61,2.39,2.39,0,0,0,2.33-1.16h2C527.07,399.73,525.43,401,523,401Zm-2-6.22h5.06a3.45,3.45,0,0,0,0-.4,2,2,0,0,0-2.13-2.15A3.12,3.12,0,0,0,521,394.73Zm12.89-1.13c0-1.87,1.65-3.12,3.93-3.12s3.7,1.15,3.91,2.86h-1.9a1.88,1.88,0,0,0-2-1.24c-1.14,0-1.94.55-1.94,1.3,0,.55.43.93,1.3,1.2l1.46.5c1.66.55,2.38,1.36,2.38,2.7,0,1.85-1.75,3.15-4.19,3.15s-4-1.2-4.11-3h2a2.09,2.09,0,0,0,2.19,1.37c1.24,0,2.1-.55,2.1-1.35,0-.52-.3-.91-1.17-1.19l-1.56-.52C534.71,395.75,533.93,394.94,533.93,393.6Z" transform="translate(-178.84 -316.02)"/><rect class="cls-1" y="61.38" width="362.93" height="0.62"/></svg>